# xmcd
#
# Track frame offsets:
#	150
#	17254
#	32911
#	43580
#	65250
#	81121
#	91008
#	119724
#	130633
#	147191
#	162463
#	184330
#	197593
#
# Disc length: 2801 seconds
#
# Revision: 1
# Processed by: cddbd v1.5.2PL0 Copyright (c) Steve Scherf et al.
# Submitted via: audiograbber 1.83.01
#
DISCID=a80aef0d
DTITLE=Sir Oliver's Blues Distillery - I Wanna Ball Tonight
DYEAR=1997
DGENRE=Blues
TTITLE0=Cherry Pie
TTITLE1=My Baby Is So Mean
TTITLE2=Call Me Trouble
TTITLE3=Made Of Stone
TTITLE4=Follow Me Down
TTITLE5=Since My Baby Left Town
TTITLE6=Tired Man
TTITLE7=Turn Your Light Down Mama
TTITLE8=I Wanna Ball Tonight
TTITLE9=I'm Worried
TTITLE10=Between The Devil My Woman And Me
TTITLE11=I Can't Wait To See My Baby
TTITLE12=Nighttime Woman
EXTD=
EXTT0=
EXTT1=
EXTT2=
EXTT3=
EXTT4=
EXTT5=
EXTT6=
EXTT7=
EXTT8=
EXTT9=
EXTT10=
EXTT11=
EXTT12=
PLAYORDER=
